<?xml version="1.0" standalone="no"?>
<svg version="1.0" xmlns="http://www.w3.org/2000/svg"
 width="120pt" height="120pt" viewBox="0 0 2048.000000 2048.000000"
 preserveAspectRatio="xMidYMid meet">

<g transform="translate(0.000000,2048.000000) scale(0.100000,-0.100000)"
fill="#0000ff" stroke="none">
<path d="M9915 20473 c-2421 -80 -4679 -984 -6495 -2597 -279 -248 -739 -722
-1006 -1036 -883 -1039 -1572 -2306 -1970 -3618 -616 -2033 -586 -4222 86
-6231 440 -1319 1138 -2518 2084 -3581 155 -174 622 -641 796 -796 2150 -1912
4915 -2826 7770 -2568 2078 187 4067 1019 5660 2368 331 280 823 761 1081
1057 743 852 1308 1747 1739 2753 413 966 676 2010 774 3071 56 601 56 1289 0
1895 -179 1948 -909 3790 -2120 5345 -535 687 -1221 1361 -1914 1883 -1464
1101 -3165 1782 -4970 1991 -482 56 -1045 80 -1515 64z m673 -6199 c59 -5 62
-7 56 -27 -4 -12 -257 -701 -563 -1532 -306 -830 -971 -2634 -1476 -4007
l-920 -2498 -531 0 -530 0 -1461 4028 -1461 4027 526 3 c289 1 527 0 529 -2
12 -12 2260 -6452 2293 -6569 36 -125 88 -370 105 -489 3 -27 10 -48 16 -48 5
0 9 4 9 9 0 31 44 259 70 360 48 190 44 178 815 2346 404 1133 918 2580 1144
3215 226 635 416 1165 421 1178 l10 22 442 -5 c244 -3 471 -8 506 -11z m4016
-25 c584 -85 1130 -376 1427 -760 163 -209 263 -428 320 -694 30 -140 38 -469
15 -641 -78 -597 -409 -1110 -918 -1426 -108 -67 -275 -147 -382 -184 -47 -16
-86 -34 -86 -40 0 -7 29 -14 70 -18 196 -18 461 -96 665 -196 540 -264 892
-716 1022 -1308 23 -105 26 -146 30 -389 3 -174 1 -308 -6 -370 -56 -475 -263
-910 -593 -1245 -402 -408 -1014 -695 -1618 -757 -150 -16 -226 -16 -1547 -13
l-1193 2 0 4030 0 4030 1168 3 c1371 4 1444 3 1626 -24z"/>
<path d="M13123 13423 l-343 -3 0 -1300 0 -1300 598 0 c647 0 707 4 906 56
294 77 574 231 746 410 170 177 278 380 336 634 21 91 29 382 15 507 -63 543
-404 860 -1036 963 -180 29 -363 40 -635 38 -135 -2 -399 -4 -587 -5z"/>
<path d="M12780 8519 l0 -1449 673 -2 c369 -1 717 -1 772 0 363 10 704 120
1016 327 211 140 396 394 483 658 53 165 61 225 61 467 -1 252 -18 371 -76
538 -170 480 -593 766 -1279 866 -189 28 -376 35 -1017 40 l-633 5 0 -1450z"/>
</g>
</svg>
